# xmcd
#
# Track frame offsets:
#	150
#	14208
#	34795
#	61232
#	92889
#	108174
#	136090
#	150039
#	173255
#	188758
#	207740
#	231257
#	254777
#	275989
#	302175
#	320297
#
# Disc length: 4573 seconds
# Revision: 0
# Processed by: cddbd v1.5.2PL0 Copyright (c) Steve Scherf et al.
# Submitted via: dBpowerAMP V12.0
#
DISCID=de11db10
DTITLE=Doc Span and Ross Williams - Doc Span and Ross Williams Play The Blues - Rare Recordings
DYEAR=2012
DGENRE=Blues
TTITLE0=Ain't Nobody's Business
TTITLE1=The Last Train
TTITLE2=Diddy Wa Diddy
TTITLE3=Rainy Night In Georgia
TTITLE4=Key To The Highway
TTITLE5=No More O' This
TTITLE6=Love Blues
TTITLE7=Help Me
TTITLE8=Love Yourself
TTITLE9=Swamp Night
TTITLE10=Angel In Company
TTITLE11=Mississippi Blues
TTITLE12=Keep It To Yourself
TTITLE13=Gone But Not Forgotten
TTITLE14=Just A Little Bit
TTITLE15=Fishin' Blues
EXTD=
EXTT0=
EXTT1=
EXTT2=
EXTT3=
EXTT4=
EXTT5=
EXTT6=
EXTT7=
EXTT8=
EXTT9=
EXTT10=
EXTT11=
EXTT12=
EXTT13=
EXTT14=
EXTT15=
PLAYORDER=
